<svg width="587" height="92" viewBox="0 0 587 92" fill="none" xmlns="http://www.w3.org/2000/svg">
<path id="Agustin Rossi" d="M33.0312 11.8438L12.6406 71H0.3125L26 2.75H33.875L33.0312 11.8438ZM50.0938 71L29.6562 11.8438L28.7656 2.75H36.6875L62.4688 71H50.0938ZM49.1094 45.6875V55.0156H11.9844V45.6875H49.1094ZM101.469 20.2812H111.734V69.5938C111.734 74.1562 110.766 78.0312 108.828 81.2188C106.891 84.4062 104.188 86.8281 100.719 88.4844C97.25 90.1719 93.2344 91.0156 88.6719 91.0156C86.7344 91.0156 84.5781 90.7344 82.2031 90.1719C79.8594 89.6094 77.5781 88.7031 75.3594 87.4531C73.1719 86.2344 71.3438 84.625 69.875 82.625L75.1719 75.9688C76.9844 78.125 78.9844 79.7031 81.1719 80.7031C83.3594 81.7031 85.6562 82.2031 88.0625 82.2031C90.6562 82.2031 92.8594 81.7188 94.6719 80.75C96.5156 79.8125 97.9375 78.4219 98.9375 76.5781C99.9375 74.7344 100.438 72.4844 100.438 69.8281V31.7656L101.469 20.2812ZM67.0156 46.2031V45.2188C67.0156 41.375 67.4844 37.875 68.4219 34.7188C69.3594 31.5312 70.7031 28.7969 72.4531 26.5156C74.2031 24.2031 76.3281 22.4375 78.8281 21.2188C81.3281 19.9688 84.1562 19.3438 87.3125 19.3438C90.5938 19.3438 93.3906 19.9375 95.7031 21.125C98.0469 22.3125 100 24.0156 101.562 26.2344C103.125 28.4219 104.344 31.0469 105.219 34.1094C106.125 37.1406 106.797 40.5156 107.234 44.2344V47.375C106.828 51 106.141 54.3125 105.172 57.3125C104.203 60.3125 102.922 62.9062 101.328 65.0938C99.7344 67.2812 97.7656 68.9688 95.4219 70.1562C93.1094 71.3438 90.375 71.9375 87.2188 71.9375C84.125 71.9375 81.3281 71.2969 78.8281 70.0156C76.3594 68.7344 74.2344 66.9375 72.4531 64.625C70.7031 62.3125 69.3594 59.5938 68.4219 56.4688C67.4844 53.3125 67.0156 49.8906 67.0156 46.2031ZM78.3125 45.2188V46.2031C78.3125 48.5156 78.5312 50.6719 78.9688 52.6719C79.4375 54.6719 80.1406 56.4375 81.0781 57.9688C82.0469 59.4688 83.2656 60.6562 84.7344 61.5312C86.2344 62.375 88 62.7969 90.0312 62.7969C92.6875 62.7969 94.8594 62.2344 96.5469 61.1094C98.2656 59.9844 99.5781 58.4688 100.484 56.5625C101.422 54.625 102.078 52.4688 102.453 50.0938V41.6094C102.266 39.7656 101.875 38.0469 101.281 36.4531C100.719 34.8594 99.9531 33.4688 98.9844 32.2812C98.0156 31.0625 96.7969 30.125 95.3281 29.4688C93.8594 28.7812 92.125 28.4375 90.125 28.4375C88.0938 28.4375 86.3281 28.875 84.8281 29.75C83.3281 30.625 82.0938 31.8281 81.125 33.3594C80.1875 34.8906 79.4844 36.6719 79.0156 38.7031C78.5469 40.7344 78.3125 42.9062 78.3125 45.2188ZM153.969 59.0469V20.2812H165.312V71H154.625L153.969 59.0469ZM155.562 48.5L159.359 48.4062C159.359 51.8125 158.984 54.9531 158.234 57.8281C157.484 60.6719 156.328 63.1562 154.766 65.2812C153.203 67.375 151.203 69.0156 148.766 70.2031C146.328 71.3594 143.406 71.9375 140 71.9375C137.531 71.9375 135.266 71.5781 133.203 70.8594C131.141 70.1406 129.359 69.0312 127.859 67.5312C126.391 66.0312 125.25 64.0781 124.438 61.6719C123.625 59.2656 123.219 56.3906 123.219 53.0469V20.2812H134.516V53.1406C134.516 54.9844 134.734 56.5312 135.172 57.7812C135.609 59 136.203 59.9844 136.953 60.7344C137.703 61.4844 138.578 62.0156 139.578 62.3281C140.578 62.6406 141.641 62.7969 142.766 62.7969C145.984 62.7969 148.516 62.1719 150.359 60.9219C152.234 59.6406 153.562 57.9219 154.344 55.7656C155.156 53.6094 155.562 51.1875 155.562 48.5ZM205.344 57.2656C205.344 56.1406 205.062 55.125 204.5 54.2188C203.938 53.2812 202.859 52.4375 201.266 51.6875C199.703 50.9375 197.391 50.25 194.328 49.625C191.641 49.0312 189.172 48.3281 186.922 47.5156C184.703 46.6719 182.797 45.6562 181.203 44.4688C179.609 43.2812 178.375 41.875 177.5 40.25C176.625 38.625 176.188 36.75 176.188 34.625C176.188 32.5625 176.641 30.6094 177.547 28.7656C178.453 26.9219 179.75 25.2969 181.438 23.8906C183.125 22.4844 185.172 21.375 187.578 20.5625C190.016 19.75 192.734 19.3438 195.734 19.3438C199.984 19.3438 203.625 20.0625 206.656 21.5C209.719 22.9062 212.062 24.8281 213.688 27.2656C215.312 29.6719 216.125 32.3906 216.125 35.4219H204.828C204.828 34.0781 204.484 32.8281 203.797 31.6719C203.141 30.4844 202.141 29.5312 200.797 28.8125C199.453 28.0625 197.766 27.6875 195.734 27.6875C193.797 27.6875 192.188 28 190.906 28.625C189.656 29.2188 188.719 30 188.094 30.9688C187.5 31.9375 187.203 33 187.203 34.1562C187.203 35 187.359 35.7656 187.672 36.4531C188.016 37.1094 188.578 37.7188 189.359 38.2812C190.141 38.8125 191.203 39.3125 192.547 39.7812C193.922 40.25 195.641 40.7031 197.703 41.1406C201.578 41.9531 204.906 43 207.688 44.2812C210.5 45.5312 212.656 47.1562 214.156 49.1562C215.656 51.125 216.406 53.625 216.406 56.6562C216.406 58.9062 215.922 60.9688 214.953 62.8438C214.016 64.6875 212.641 66.2969 210.828 67.6719C209.016 69.0156 206.844 70.0625 204.312 70.8125C201.812 71.5625 199 71.9375 195.875 71.9375C191.281 71.9375 187.391 71.125 184.203 69.5C181.016 67.8438 178.594 65.7344 176.938 63.1719C175.312 60.5781 174.5 57.8906 174.5 55.1094H185.422C185.547 57.2031 186.125 58.875 187.156 60.125C188.219 61.3438 189.531 62.2344 191.094 62.7969C192.688 63.3281 194.328 63.5938 196.016 63.5938C198.047 63.5938 199.75 63.3281 201.125 62.7969C202.5 62.2344 203.547 61.4844 204.266 60.5469C204.984 59.5781 205.344 58.4844 205.344 57.2656ZM249.547 20.2812V28.5312H220.953V20.2812H249.547ZM229.203 7.85938H240.5V56.9844C240.5 58.5469 240.719 59.75 241.156 60.5938C241.625 61.4062 242.266 61.9531 243.078 62.2344C243.891 62.5156 244.844 62.6562 245.938 62.6562C246.719 62.6562 247.469 62.6094 248.188 62.5156C248.906 62.4219 249.484 62.3281 249.922 62.2344L249.969 70.8594C249.031 71.1406 247.938 71.3906 246.688 71.6094C245.469 71.8281 244.062 71.9375 242.469 71.9375C239.875 71.9375 237.578 71.4844 235.578 70.5781C233.578 69.6406 232.016 68.125 230.891 66.0312C229.766 63.9375 229.203 61.1562 229.203 57.6875V7.85938ZM270.359 20.2812V71H259.016V20.2812H270.359ZM258.266 6.96875C258.266 5.25 258.828 3.82812 259.953 2.70312C261.109 1.54687 262.703 0.96875 264.734 0.96875C266.734 0.96875 268.312 1.54687 269.469 2.70312C270.625 3.82812 271.203 5.25 271.203 6.96875C271.203 8.65625 270.625 10.0625 269.469 11.1875C268.312 12.3125 266.734 12.875 264.734 12.875C262.703 12.875 261.109 12.3125 259.953 11.1875C258.828 10.0625 258.266 8.65625 258.266 6.96875ZM293.938 31.1094V71H282.641V20.2812H293.281L293.938 31.1094ZM291.922 43.7656L288.266 43.7188C288.297 40.125 288.797 36.8281 289.766 33.8281C290.766 30.8281 292.141 28.25 293.891 26.0938C295.672 23.9375 297.797 22.2812 300.266 21.125C302.734 19.9375 305.484 19.3438 308.516 19.3438C310.953 19.3438 313.156 19.6875 315.125 20.375C317.125 21.0312 318.828 22.1094 320.234 23.6094C321.672 25.1094 322.766 27.0625 323.516 29.4688C324.266 31.8438 324.641 34.7656 324.641 38.2344V71H313.297V38.1875C313.297 35.75 312.938 33.8281 312.219 32.4219C311.531 30.9844 310.516 29.9688 309.172 29.375C307.859 28.75 306.219 28.4375 304.25 28.4375C302.312 28.4375 300.578 28.8438 299.047 29.6562C297.516 30.4688 296.219 31.5781 295.156 32.9844C294.125 34.3906 293.328 36.0156 292.766 37.8594C292.203 39.7031 291.922 41.6719 291.922 43.7656ZM361.203 2.75H385.344C390.531 2.75 394.953 3.53125 398.609 5.09375C402.266 6.65625 405.062 8.96875 407 12.0312C408.969 15.0625 409.953 18.8125 409.953 23.2812C409.953 26.6875 409.328 29.6875 408.078 32.2812C406.828 34.875 405.062 37.0625 402.781 38.8438C400.5 40.5938 397.781 41.9531 394.625 42.9219L391.062 44.6562H369.359L369.266 35.3281H385.531C388.344 35.3281 390.688 34.8281 392.562 33.8281C394.438 32.8281 395.844 31.4688 396.781 29.75C397.75 28 398.234 26.0312 398.234 23.8438C398.234 21.4688 397.766 19.4062 396.828 17.6562C395.922 15.875 394.516 14.5156 392.609 13.5781C390.703 12.6094 388.281 12.125 385.344 12.125H372.969V71H361.203V2.75ZM400.156 71L384.125 40.3438L396.453 40.2969L412.719 70.3906V71H400.156ZM418.391 46.2031V45.125C418.391 41.4688 418.922 38.0781 419.984 34.9531C421.047 31.7969 422.578 29.0625 424.578 26.75C426.609 24.4062 429.078 22.5938 431.984 21.3125C434.922 20 438.234 19.3438 441.922 19.3438C445.641 19.3438 448.953 20 451.859 21.3125C454.797 22.5938 457.281 24.4062 459.312 26.75C461.344 29.0625 462.891 31.7969 463.953 34.9531C465.016 38.0781 465.547 41.4688 465.547 45.125V46.2031C465.547 49.8594 465.016 53.25 463.953 56.375C462.891 59.5 461.344 62.2344 459.312 64.5781C457.281 66.8906 454.812 68.7031 451.906 70.0156C449 71.2969 445.703 71.9375 442.016 71.9375C438.297 71.9375 434.969 71.2969 432.031 70.0156C429.125 68.7031 426.656 66.8906 424.625 64.5781C422.594 62.2344 421.047 59.5 419.984 56.375C418.922 53.25 418.391 49.8594 418.391 46.2031ZM429.688 45.125V46.2031C429.688 48.4844 429.922 50.6406 430.391 52.6719C430.859 54.7031 431.594 56.4844 432.594 58.0156C433.594 59.5469 434.875 60.75 436.438 61.625C438 62.5 439.859 62.9375 442.016 62.9375C444.109 62.9375 445.922 62.5 447.453 61.625C449.016 60.75 450.297 59.5469 451.297 58.0156C452.297 56.4844 453.031 54.7031 453.5 52.6719C454 50.6406 454.25 48.4844 454.25 46.2031V45.125C454.25 42.875 454 40.75 453.5 38.75C453.031 36.7188 452.281 34.9219 451.25 33.3594C450.25 31.7969 448.969 30.5781 447.406 29.7031C445.875 28.7969 444.047 28.3438 441.922 28.3438C439.797 28.3438 437.953 28.7969 436.391 29.7031C434.859 30.5781 433.594 31.7969 432.594 33.3594C431.594 34.9219 430.859 36.7188 430.391 38.75C429.922 40.75 429.688 42.875 429.688 45.125ZM503.469 57.2656C503.469 56.1406 503.188 55.125 502.625 54.2188C502.062 53.2812 500.984 52.4375 499.391 51.6875C497.828 50.9375 495.516 50.25 492.453 49.625C489.766 49.0312 487.297 48.3281 485.047 47.5156C482.828 46.6719 480.922 45.6562 479.328 44.4688C477.734 43.2812 476.5 41.875 475.625 40.25C474.75 38.625 474.312 36.75 474.312 34.625C474.312 32.5625 474.766 30.6094 475.672 28.7656C476.578 26.9219 477.875 25.2969 479.562 23.8906C481.25 22.4844 483.297 21.375 485.703 20.5625C488.141 19.75 490.859 19.3438 493.859 19.3438C498.109 19.3438 501.75 20.0625 504.781 21.5C507.844 22.9062 510.188 24.8281 511.812 27.2656C513.438 29.6719 514.25 32.3906 514.25 35.4219H502.953C502.953 34.0781 502.609 32.8281 501.922 31.6719C501.266 30.4844 500.266 29.5312 498.922 28.8125C497.578 28.0625 495.891 27.6875 493.859 27.6875C491.922 27.6875 490.312 28 489.031 28.625C487.781 29.2188 486.844 30 486.219 30.9688C485.625 31.9375 485.328 33 485.328 34.1562C485.328 35 485.484 35.7656 485.797 36.4531C486.141 37.1094 486.703 37.7188 487.484 38.2812C488.266 38.8125 489.328 39.3125 490.672 39.7812C492.047 40.25 493.766 40.7031 495.828 41.1406C499.703 41.9531 503.031 43 505.812 44.2812C508.625 45.5312 510.781 47.1562 512.281 49.1562C513.781 51.125 514.531 53.625 514.531 56.6562C514.531 58.9062 514.047 60.9688 513.078 62.8438C512.141 64.6875 510.766 66.2969 508.953 67.6719C507.141 69.0156 504.969 70.0625 502.438 70.8125C499.938 71.5625 497.125 71.9375 494 71.9375C489.406 71.9375 485.516 71.125 482.328 69.5C479.141 67.8438 476.719 65.7344 475.062 63.1719C473.438 60.5781 472.625 57.8906 472.625 55.1094H483.547C483.672 57.2031 484.25 58.875 485.281 60.125C486.344 61.3438 487.656 62.2344 489.219 62.7969C490.812 63.3281 492.453 63.5938 494.141 63.5938C496.172 63.5938 497.875 63.3281 499.25 62.7969C500.625 62.2344 501.672 61.4844 502.391 60.5469C503.109 59.5781 503.469 58.4844 503.469 57.2656ZM552.875 57.2656C552.875 56.1406 552.594 55.125 552.031 54.2188C551.469 53.2812 550.391 52.4375 548.797 51.6875C547.234 50.9375 544.922 50.25 541.859 49.625C539.172 49.0312 536.703 48.3281 534.453 47.5156C532.234 46.6719 530.328 45.6562 528.734 44.4688C527.141 43.2812 525.906 41.875 525.031 40.25C524.156 38.625 523.719 36.75 523.719 34.625C523.719 32.5625 524.172 30.6094 525.078 28.7656C525.984 26.9219 527.281 25.2969 528.969 23.8906C530.656 22.4844 532.703 21.375 535.109 20.5625C537.547 19.75 540.266 19.3438 543.266 19.3438C547.516 19.3438 551.156 20.0625 554.188 21.5C557.25 22.9062 559.594 24.8281 561.219 27.2656C562.844 29.6719 563.656 32.3906 563.656 35.4219H552.359C552.359 34.0781 552.016 32.8281 551.328 31.6719C550.672 30.4844 549.672 29.5312 548.328 28.8125C546.984 28.0625 545.297 27.6875 543.266 27.6875C541.328 27.6875 539.719 28 538.438 28.625C537.188 29.2188 536.25 30 535.625 30.9688C535.031 31.9375 534.734 33 534.734 34.1562C534.734 35 534.891 35.7656 535.203 36.4531C535.547 37.1094 536.109 37.7188 536.891 38.2812C537.672 38.8125 538.734 39.3125 540.078 39.7812C541.453 40.25 543.172 40.7031 545.234 41.1406C549.109 41.9531 552.438 43 555.219 44.2812C558.031 45.5312 560.188 47.1562 561.688 49.1562C563.188 51.125 563.938 53.625 563.938 56.6562C563.938 58.9062 563.453 60.9688 562.484 62.8438C561.547 64.6875 560.172 66.2969 558.359 67.6719C556.547 69.0156 554.375 70.0625 551.844 70.8125C549.344 71.5625 546.531 71.9375 543.406 71.9375C538.812 71.9375 534.922 71.125 531.734 69.5C528.547 67.8438 526.125 65.7344 524.469 63.1719C522.844 60.5781 522.031 57.8906 522.031 55.1094H532.953C533.078 57.2031 533.656 58.875 534.688 60.125C535.75 61.3438 537.062 62.2344 538.625 62.7969C540.219 63.3281 541.859 63.5938 543.547 63.5938C545.578 63.5938 547.281 63.3281 548.656 62.7969C550.031 62.2344 551.078 61.4844 551.797 60.5469C552.516 59.5781 552.875 58.4844 552.875 57.2656ZM585.922 20.2812V71H574.578V20.2812H585.922ZM573.828 6.96875C573.828 5.25 574.391 3.82812 575.516 2.70312C576.672 1.54687 578.266 0.96875 580.297 0.96875C582.297 0.96875 583.875 1.54687 585.031 2.70312C586.188 3.82812 586.766 5.25 586.766 6.96875C586.766 8.65625 586.188 10.0625 585.031 11.1875C583.875 12.3125 582.297 12.875 580.297 12.875C578.266 12.875 576.672 12.3125 575.516 11.1875C574.391 10.0625 573.828 8.65625 573.828 6.96875Z" fill="url(#paint0_linear_2_3)"/>
<defs>
<linearGradient id="paint0_linear_2_3" x1="72.4959" y1="25.866" x2="859.592" y2="31.3022" gradientUnits="userSpaceOnUse">
<stop offset="0.21875" stop-color="#41A7E1"/>
<stop offset="1" stop-color="#33DCD2" stop-opacity="0"/>
</linearGradient>
</defs>
</svg>
